<svg xmlns="http://www.w3.org/2000/svg" version="1.0" width="250.000000pt" height="250.000000pt" viewBox="0 0 250.000000 250.000000" preserveAspectRatio="xMidYMid meet">

<g transform="translate(0.000000,250.000000) scale(0.100000,-0.100000)" fill="#9138c8" stroke="none">
<path d="M1280 2400 c-7 -12 -9 -92 -8 -216 3 -194 3 -197 26 -205 l22 -8 0 199 0 200 385 1 c212 0 400 1 418 2 l32 1 5 -128 c4 -98 8 -129 20 -136 8 -5 66 -10 128 -10 l112 0 0 -534 0 -534 25 -16 25 -16 0 566 0 566 -137 144 -138 144 -452 0 c-440 0 -453 -1 -463 -20z m1028 -168 l75 -82 -87 0 -86 0 0 86 c0 61 3 85 12 82 6 -2 45 -41 86 -86z"/>
<path d="M1453 2194 c-3 -8 -1 -20 4 -25 5 -5 122 -8 289 -7 271 3 279 4 279 23 0 19 -8 20 -283 23 -250 2 -283 0 -289 -14z"/>
<path d="M1460 2065 c-26 -31 -1 -35 256 -35 224 0 255 2 261 16 3 9 0 20 -8 25 -8 5 -123 9 -255 9 -199 0 -244 -3 -254 -15z"/>
<path d="M782 1954 c-359 -65 -643 -329 -744 -691 -32 -113 -31 -362 0 -478 52 -188 176 -380 322 -496 90 -72 246 -151 355 -181 116 -31 355 -31 470 0 254 69 487 255 604 482 76 148 104 265 105 430 0 253 -81 460 -254 644 -228 241 -543 348 -858 290z m348 -144 c472 -113 742 -605 578 -1056 -69 -191 -212 -350 -399 -445 -167 -84 -378 -107 -554 -60 -292 76 -515 303 -585 594 -85 353 88 730 410 896 132 68 215 88 370 90 64 1 123 -6 180 -19z"/>
<path d="M785 1680 c-155 -41 -268 -114 -359 -233 -127 -166 -172 -361 -130 -564 51 -248 241 -444 494 -510 86 -22 244 -22 330 0 235 61 422 249 486 488 22 83 22 233 0 319 -22 89 -85 213 -143 282 -160 192 -439 282 -678 218z m189 -23 c13 -9 17 -24 14 -56 -6 -83 -70 -83 -76 0 -3 32 1 47 14 56 10 7 21 13 24 13 3 0 14 -6 24 -13z m418 -294 c10 -9 18 -30 18 -47 0 -27 -32 -63 -253 -285 -140 -139 -261 -258 -271 -263 -28 -16 -47 -2 -160 111 -117 117 -129 142 -88 183 38 38 67 27 151 -56 l76 -76 225 225 c191 191 229 225 254 225 16 0 38 -7 48 -17z m-971 -313 c21 -12 25 -40 7 -58 -13 -13 -66 -16 -92 -6 -19 7 -21 45 -4 62 15 15 63 16 89 2z m1150 0 c21 -12 25 -40 7 -58 -13 -13 -66 -16 -92 -6 -19 7 -22 60 -3 67 22 9 68 7 88 -3z m-593 -552 c7 -7 12 -28 12 -48 0 -56 -47 -84 -70 -41 -31 59 16 131 58 89z"/>
<path d="M1455 1940 c-4 -6 -1 -17 5 -26 11 -12 72 -14 419 -12 l406 3 3 23 3 22 -415 0 c-277 0 -417 -3 -421 -10z"/>
<path d="M1620 1795 l24 -25 320 2 c313 3 321 3 321 23 0 20 -8 20 -344 23 l-345 2 24 -25z"/>
<path d="M1742 1670 c17 -27 31 -29 183 -26 72 2 183 4 248 4 110 2 117 3 117 22 0 20 -7 20 -280 20 -279 0 -280 0 -268 -20z"/>
<path d="M1830 1554 c0 -3 5 -14 10 -25 10 -18 23 -19 224 -19 175 0 216 3 226 15 6 8 9 19 5 25 -6 10 -465 15 -465 4z"/>
<path d="M1902 1413 c3 -17 20 -18 198 -18 167 0 195 2 195 15 0 13 -30 15 -198 18 -185 2 -198 1 -195 -15z"/>
<path d="M1942 1283 c3 -16 19 -18 178 -18 149 0 175 2 175 15 0 13 -28 15 -178 18 -166 2 -178 1 -175 -15z"/>
<path d="M1960 1150 c0 -20 4 -20 168 -18 141 3 167 5 167 18 0 13 -26 15 -167 18 -164 2 -168 2 -168 -18z"/>
<path d="M2167 1006 c-98 -35 -157 -122 -157 -232 0 -97 36 -163 115 -209 87 -52 199 -42 275 22 61 53 84 104 84 188 0 84 -23 135 -84 187 -65 56 -152 72 -233 44z m186 -73 c63 -44 94 -124 76 -201 -45 -203 -350 -185 -367 22 -6 69 10 114 52 155 68 66 164 76 239 24z"/>
<path d="M2230 811 c0 -95 1 -101 20 -101 20 0 21 5 18 97 -3 84 -6 98 -20 101 -16 3 -18 -7 -18 -97z"/>
<path d="M1925 737 c-8 -19 -2 -31 13 -26 5 2 6 13 2 24 -7 19 -8 19 -15 2z"/>
</g>
</svg>
